<svg width="11" height="9" viewBox="0 0 11 9" fill="none" xmlns="http://www.w3.org/2000/svg">
<path d="M9.2554 4.95034C9.2554 4.93694 9.2554 4.92355 9.24871 4.91016L5.39826 1.73605L1.54781 4.91016C1.54781 4.92355 1.54112 4.93694 1.54112 4.95034V8.16462C1.54112 8.399 1.73531 8.59319 1.96969 8.59319H4.54112V6.02176H6.2554V8.59319H8.82683C9.06121 8.59319 9.2554 8.399 9.2554 8.16462V4.95034ZM10.7487 4.48828C10.8224 4.40123 10.809 4.2606 10.7219 4.18694L9.2554 2.96819V0.236049C9.2554 0.115514 9.16165 0.0217638 9.04112 0.0217638H7.7554C7.63487 0.0217638 7.54112 0.115514 7.54112 0.236049V1.54185L5.90719 0.175781C5.62594 -0.0585938 5.17058 -0.0585938 4.88933 0.175781L0.0745992 4.18694C-0.0124544 4.2606 -0.0258473 4.40123 0.0478134 4.48828L0.462992 4.98382C0.496474 5.024 0.550046 5.05078 0.603617 5.05748C0.663885 5.06417 0.717456 5.04409 0.764331 5.0106L5.39826 1.14676L10.0322 5.0106C10.0724 5.04409 10.1192 5.05748 10.1728 5.05748C10.1795 5.05748 10.1862 5.05748 10.1929 5.05748C10.2465 5.05078 10.3 5.024 10.3335 4.98382L10.7487 4.48828Z" fill="black"/>
</svg>
