<svg width="18" height="17" viewBox="0 0 18 17" fill="none" xmlns="http://www.w3.org/2000/svg">
<path d="M17.9908 2.5183V1.67887C17.9908 0.753704 17.2744 0.00178603 16.3155 0L1.61098 0.0071441C0.712726 0.0446507 0.00183692 0.471511 0 1.35559L0.00734768 11.7503C0.045923 12.6433 0.804572 13.3595 1.73957 13.3595H2.66354V13.3648L6.0398 13.3595C6.52107 13.3595 6.90866 13.2023 6.90866 12.7379C6.90866 12.2736 6.51924 12.0325 6.0398 12.0325L2.35861 12.0378C1.68813 11.9985 1.46035 11.8485 1.38688 11.3252L1.38137 2.02893C1.47137 1.54313 1.71385 1.39846 2.34759 1.35738L16.6168 1.35024V1.3681L15.4816 1.36095C16.3192 1.37881 16.5507 1.50026 16.6168 2.18967L16.6076 11.2395C16.5562 11.8949 16.3523 12.0218 15.6138 12.0468L9.67139 12.0539C9.47668 11.9896 9.27278 12.0182 9.08358 12.1325C8.95316 12.1879 8.84845 12.2736 8.77865 12.3861L5.37667 15.6438C5.03684 15.9724 4.90826 16.4868 5.24809 16.8137C5.58792 17.1423 6.13899 16.9994 6.47699 16.6708L9.92489 13.3666L15.3861 13.3613V13.3595H16.31C17.2707 13.3595 17.989 12.6076 17.989 11.6788V10.8394H17.9908L18 2.52187L17.9908 2.5183ZM16.6039 12.0468H16.1612L16.6039 12.0432V12.0468ZM15.4779 1.36274C15.3089 1.35917 15.1197 1.35917 14.9011 1.35917L15.4779 1.36274ZM10.0314 6.70118C10.0314 6.14751 9.56669 5.69921 8.99357 5.69921C8.42045 5.69921 7.95571 6.14751 7.95571 6.70118C7.95571 7.25484 8.42045 7.70314 8.99357 7.70314C9.56669 7.70314 10.0314 7.25484 10.0314 6.70118ZM4.14961 6.70118C4.14961 7.25484 4.61435 7.70314 5.18747 7.70314C5.76059 7.70314 6.22533 7.25484 6.22533 6.70118C6.22533 6.14751 5.76059 5.69921 5.18747 5.69921C4.61435 5.69921 4.14961 6.14751 4.14961 6.70118ZM13.8375 6.70118C13.8375 6.14751 13.3728 5.69921 12.7997 5.69921C12.2266 5.69921 11.7618 6.14751 11.7618 6.70118C11.7618 7.25484 12.2266 7.70314 12.7997 7.70314C13.3728 7.70314 13.8375 7.25484 13.8375 6.70118Z" fill="#BDBDBD"/>
</svg>
