<svg width="12" height="12" viewBox="0 0 12 12" fill="none" xmlns="http://www.w3.org/2000/svg">
<path d="M0.857143 11.1429V9.21429H2.78571V11.1429H0.857143ZM3.21429 11.1429V9.21429H5.35714V11.1429H3.21429ZM0.857143 8.78572V6.64286H2.78571V8.78572H0.857143ZM3.21429 8.78572V6.64286H5.35714V8.78572H3.21429ZM0.857143 6.21429V4.28572H2.78571V6.21429H0.857143ZM5.78571 11.1429V9.21429H7.92857V11.1429H5.78571ZM3.21429 6.21429V4.28572H5.35714V6.21429H3.21429ZM8.35714 11.1429V9.21429H10.2857V11.1429H8.35714ZM5.78571 8.78572V6.64286H7.92857V8.78572H5.78571ZM3.42857 3C3.42857 3.11384 3.32812 3.21429 3.21429 3.21429H2.78571C2.67188 3.21429 2.57143 3.11384 2.57143 3V1.07143C2.57143 0.957589 2.67188 0.857143 2.78571 0.857143H3.21429C3.32812 0.857143 3.42857 0.957589 3.42857 1.07143V3ZM8.35714 8.78572V6.64286H10.2857V8.78572H8.35714ZM5.78571 6.21429V4.28572H7.92857V6.21429H5.78571ZM8.35714 6.21429V4.28572H10.2857V6.21429H8.35714ZM8.57143 3C8.57143 3.11384 8.47098 3.21429 8.35714 3.21429H7.92857C7.81473 3.21429 7.71429 3.11384 7.71429 3V1.07143C7.71429 0.957589 7.81473 0.857143 7.92857 0.857143H8.35714C8.47098 0.857143 8.57143 0.957589 8.57143 1.07143V3ZM11.1429 2.57143C11.1429 2.10268 10.7545 1.71429 10.2857 1.71429H9.42857V1.07143C9.42857 0.482143 8.94643 0 8.35714 0H7.92857C7.33929 0 6.85714 0.482143 6.85714 1.07143V1.71429H4.28571V1.07143C4.28571 0.482143 3.80357 0 3.21429 0H2.78571C2.19643 0 1.71429 0.482143 1.71429 1.07143V1.71429H0.857143C0.388393 1.71429 0 2.10268 0 2.57143V11.1429C0 11.6116 0.388393 12 0.857143 12H10.2857C10.7545 12 11.1429 11.6116 11.1429 11.1429V2.57143Z" fill="black" fill-opacity="0.67"/>
</svg>
