<svg width="13" height="12" viewBox="0 0 13 12" fill="none" xmlns="http://www.w3.org/2000/svg">
<path d="M3.97102 6C3.62281 5.49777 3.42861 4.89509 3.42861 4.28572C3.42861 4.13839 3.44201 3.99107 3.46209 3.84375C3.17415 3.9442 2.87951 3.99777 2.57147 3.99777C1.66745 3.99777 0.971023 3.42857 0.830398 3.42857C-0.0200484 3.42857 4.08848e-05 5.25 4.08848e-05 5.79241C4.08848e-05 6.53572 0.629505 6.85714 1.29915 6.85714H2.19647C2.64513 6.32143 3.27459 6.02009 3.97102 6ZM11.1429 10.2656C11.1429 8.75223 10.788 6.42857 8.82593 6.42857C8.59826 6.42857 7.7679 7.35938 6.42861 7.35938C5.08933 7.35938 4.25897 6.42857 4.03129 6.42857C2.06924 6.42857 1.71433 8.75223 1.71433 10.2656C1.71433 11.3504 2.43084 12 3.50227 12H9.35495C10.4264 12 11.1429 11.3504 11.1429 10.2656ZM4.28576 1.71429C4.28576 0.770089 3.51567 0 2.57147 0C1.62727 0 0.857184 0.770089 0.857184 1.71429C0.857184 2.65848 1.62727 3.42857 2.57147 3.42857C3.51567 3.42857 4.28576 2.65848 4.28576 1.71429ZM9.00004 4.28572C9.00004 2.86607 7.84826 1.71429 6.42861 1.71429C5.00897 1.71429 3.85718 2.86607 3.85718 4.28572C3.85718 5.70536 5.00897 6.85714 6.42861 6.85714C7.84826 6.85714 9.00004 5.70536 9.00004 4.28572ZM12.8572 5.79241C12.8572 5.25 12.8773 3.42857 12.0268 3.42857C11.8862 3.42857 11.1898 3.99777 10.2858 3.99777C9.97772 3.99777 9.68308 3.9442 9.39513 3.84375C9.41522 3.99107 9.42861 4.13839 9.42861 4.28572C9.42861 4.89509 9.23442 5.49777 8.8862 6C9.58263 6.02009 10.2121 6.32143 10.6608 6.85714H11.5581C12.2277 6.85714 12.8572 6.53572 12.8572 5.79241ZM12 1.71429C12 0.770089 11.23 0 10.2858 0C9.34156 0 8.57147 0.770089 8.57147 1.71429C8.57147 2.65848 9.34156 3.42857 10.2858 3.42857C11.23 3.42857 12 2.65848 12 1.71429Z" fill="black" fill-opacity="0.67"/>
</svg>
