<svg width="12" height="12" viewBox="0 0 12 12" fill="none" xmlns="http://www.w3.org/2000/svg">
<path opacity="0.67" d="M12 4.37946C12 4.3192 11.9732 4.25893 11.9263 4.21875C11.2232 3.60268 11.2165 3.52902 7.72098 0.977679C7.3058 0.676339 6.5558 0 6 0C5.4442 0 4.70089 0.669643 4.27902 0.977679C0.783483 3.52902 0.776786 3.60268 0.0736607 4.21875C0.0267857 4.25893 0 4.3192 0 4.37946V10.9286C0 11.5179 0.482143 12 1.07143 12H10.9286C11.5179 12 12 11.5179 12 10.9286V4.37946ZM8.22321 8.29688C7.72768 8.65848 6.88393 9.42857 6 9.42857C5.12277 9.42857 4.29911 8.67188 3.77679 8.29688C2.73214 7.54018 2.00223 7.01116 1.46652 6.60938C1.37277 6.54241 1.35268 6.40848 1.42634 6.31473L1.6808 5.96652C1.75446 5.87277 1.88839 5.85268 1.98214 5.92634C2.51116 6.31473 3.23438 6.84375 4.27902 7.60045C4.6942 7.90179 5.4442 8.57143 6 8.57143C6.5558 8.57143 7.3058 7.90179 7.72098 7.60045C8.76563 6.85045 9.48884 6.31473 10.0179 5.92634C10.1116 5.85268 10.2455 5.87277 10.3192 5.96652L10.5737 6.31473C10.6473 6.40848 10.6272 6.54241 10.5335 6.60938C9.99777 7.01116 9.26786 7.54018 8.22321 8.29688Z" fill="black"/>
</svg>
