<svg width="18" height="14" viewBox="0 0 18 14" fill="none" xmlns="http://www.w3.org/2000/svg">
<path d="M5.89286 6.64286C7.66741 6.64286 9.10714 5.20313 9.10714 3.42857C9.10714 1.65402 7.66741 0.214287 5.89286 0.214287C4.1183 0.214287 2.67857 1.65402 2.67857 3.42857C2.67857 5.20313 4.1183 6.64286 5.89286 6.64286ZM13.9286 7.71429V4.76786C13.9286 4.62556 13.803 4.5 13.6607 4.5H12.0536C11.9113 4.5 11.7857 4.62556 11.7857 4.76786V7.71429H8.83929C8.69699 7.71429 8.57143 7.83985 8.57143 7.98214V9.58929C8.57143 9.73159 8.69699 9.85714 8.83929 9.85714H11.7857V12.8036C11.7857 12.9459 11.9113 13.0714 12.0536 13.0714H13.6607C13.803 13.0714 13.9286 12.9459 13.9286 12.8036V9.85714H16.875C17.0173 9.85714 17.1429 9.73159 17.1429 9.58929V7.98214C17.1429 7.83985 17.0173 7.71429 16.875 7.71429H13.9286ZM7.76786 9.58929V7.98214C7.76786 7.39621 8.25335 6.91072 8.83929 6.91072H10.7059C10.2288 6.375 9.601 6.10714 8.88951 6.10714C8.75558 6.10714 8.6635 6.16574 8.56306 6.24944C7.74275 6.87723 6.94755 7.27065 5.89286 7.27065C4.83817 7.27065 4.04297 6.87723 3.22266 6.24944C3.12221 6.16574 3.03013 6.10714 2.89621 6.10714C0.443638 6.10714 0 9.01172 0 10.9035C0 12.2679 0.895647 13.0714 2.23493 13.0714H9.55078C10.053 13.0714 10.572 12.9542 10.9821 12.6529V10.6607H8.83929C8.25335 10.6607 7.76786 10.1752 7.76786 9.58929Z" fill="#34AAFF"/>
</svg>
